# File produced by Open Asset Import Library (http://www.assimp.sf.net)
# (assimp v3.2.202087883)

mtllib model_normalized.mtl

# 48 vertex positions
v 0.176481 0.305673 -0.028931
v 0.249581 0.249582 0.028931
v 0.249581 0.249582 -0.028931
v 0.176481 0.305673 0.028931
v 0.305673 0.176480 0.028931
v 0.091353 0.340934 -0.028931
v 0.305673 0.176480 -0.028931
v 0.091353 0.340934 0.028931
v 0.340934 0.091353 -0.028931
v -0.305673 0.176480 0.028931
v -0.249582 0.249582 -0.028931
v -0.305673 0.176480 -0.028931
v -0.176480 0.305673 0.028931
v -0.176480 0.305673 -0.028931
v 0.000000 0.352961 -0.028931
v -0.249582 0.249582 0.028931
v 0.340934 0.091353 0.028931
v -0.340935 0.091353 -0.028931
v -0.340935 0.091353 0.028931
v -0.091353 0.340934 0.028931
v 0.000000 0.352961 0.028931
v -0.091353 0.340934 -0.028931
v 0.352961 -0.000000 -0.028931
v -0.352961 -0.000000 0.028931
v 0.352961 -0.000000 0.028931
v -0.352961 -0.000000 -0.028931
v 0.340934 -0.091353 -0.028931
v -0.340935 -0.091353 0.028931
v 0.340934 -0.091353 0.028931
v -0.340935 -0.091353 -0.028931
v 0.305673 -0.176481 -0.028931
v -0.305673 -0.176481 0.028931
v 0.305673 -0.176481 0.028931
v -0.305673 -0.176481 -0.028931
v 0.249581 -0.249581 -0.028931
v -0.249582 -0.249581 0.028931
v 0.249581 -0.249581 0.028931
v -0.249582 -0.249581 -0.028931
v 0.176481 -0.305673 0.028931
v -0.176480 -0.305673 -0.028931
v 0.176481 -0.305673 -0.028931
v -0.176480 -0.305673 0.028931
v 0.091353 -0.340934 0.028931
v -0.091353 -0.340934 -0.028931
v 0.091353 -0.340934 -0.028931
v -0.091353 -0.340934 0.028931
v 0.000000 -0.352961 0.028931
v 0.000000 -0.352961 -0.028931

# 25 UV coordinates
vt 0 0 0
vt 276.207 3.79275 0
vt 276.793 3.79275 0
vt 276.292 3.8586 0
vt 276.858 3.70692 0
vt 276.707 3.8586 0
vt 276.392 3.9 0
vt 276.141 3.70692 0
vt 276.607 3.9 0
vt 276.099 3.60698 0
vt 276.9 3.60698 0
vt 276.5 3.91411 0
vt 276.914 3.49973 0
vt 276.085 3.49973 0
vt 276.9 3.39248 0
vt 276.099 3.39248 0
vt 276.858 3.29254 0
vt 276.141 3.29254 0
vt 276.793 3.20672 0
vt 276.207 3.20672 0
vt 276.707 3.14087 0
vt 276.292 3.14087 0
vt 276.607 3.09947 0
vt 276.392 3.09947 0
vt 276.5 3.08535 0

# 74 vertex normals
vn 0.0044644 0.00773258 -0.00450293
vn 0.00707107 0.00707107 0
vn 0.00631362 0.00631362 -0.00450293
vn 0.005 0.00866025 0
vn 0.00866025 0.005 0
vn 0.00231095 0.00862457 -0.00450293
vn 0.00773258 0.0044644 -0.00450293
vn 0.00258819 0.00965926 0
vn 0.00862457 0.00231095 -0.00450293
vn -0.00866025 0.005 0
vn -0.00631362 0.00631362 -0.00450293
vn -0.00773258 0.0044644 -0.00450293
vn -0.005 0.00866025 0
vn -0.0044644 0.00773258 -0.00450293
vn 0 0.00892881 -0.00450293
vn -0.00707107 0.00707107 0
vn 0.00965926 0.00258819 0
vn -0.00862457 0.00231095 -0.00450293
vn -0.00965926 0.00258819 0
vn -0.00258819 0.00965926 0
vn 0 0.01 0
vn -0.00231095 0.00862457 -0.00450293
vn 0.00892881 0 -0.00450293
vn -0.01 0 0
vn 0.01 0 0
vn -0.00892881 0 -0.00450293
vn 0.00862457 -0.00231095 -0.00450293
vn -0.00965926 -0.00258819 0
vn 0.00965926 -0.00258819 -0
vn -0.00862457 -0.00231095 -0.00450293
vn 0.00773258 -0.0044644 -0.00450293
vn -0.00866025 -0.005 0
vn 0.00866025 -0.005 -0
vn -0.00773258 -0.0044644 -0.00450293
vn 0.00631362 -0.00631362 -0.00450293
vn -0.00707107 -0.00707107 0
vn 0.00707107 -0.00707107 -0
vn -0.00631362 -0.00631362 -0.00450293
vn 0.005 -0.00866025 -0
vn -0.0044644 -0.00773258 -0.00450293
vn 0.0044644 -0.00773258 -0.00450293
vn -0.005 -0.00866025 0
vn 0.00258819 -0.00965926 -0
vn -0.00231095 -0.00862457 -0.00450293
vn 0.00231095 -0.00862457 -0.00450293
vn -0.00258819 -0.00965926 0
vn 0 -0.01 0
vn -0 -0.00892881 -0.00450293
vn -0.00631362 -0.00631362 0.00450293
vn -0.0044644 -0.00773258 0.00450293
vn 0.00631362 -0.00631362 0.00450293
vn -0.00231095 -0.00862457 0.00450293
vn 0 0 0.01
vn -0 0 -0.01
vn -0.00773258 -0.0044644 0.00450293
vn 0.00773258 -0.0044644 0.00450293
vn 0.0044644 -0.00773258 0.00450293
vn -0.00862457 -0.00231095 0.00450293
vn 0 -0.00892881 0.00450293
vn 0.00231095 -0.00862457 0.00450293
vn 0.00862457 -0.00231095 0.00450293
vn -0.00892881 0 0.00450293
vn 0.00892881 0 0.00450293
vn -0.00862457 0.00231095 0.00450293
vn 0.00862457 0.00231095 0.00450293
vn -0.00773258 0.0044644 0.00450293
vn 0.00773258 0.0044644 0.00450293
vn -0.00631362 0.00631362 0.00450293
vn 0.00631362 0.00631362 0.00450293
vn 0.0044644 0.00773258 0.00450293
vn -0.0044644 0.00773258 0.00450293
vn 0.00231095 0.00862457 0.00450293
vn -0.00231095 0.00862457 0.00450293
vn 0 0.00892881 0.00450293

# Mesh 'mesh1_mesh1-geometry' with 48 faces
g mesh1_mesh1-geometry
usemtl material_0_24
f  1/1/1 2/1/2 3/1/3
f  2/1/2 1/1/1 4/1/4
f  5/1/5 3/1/3 2/1/2
f  6/1/6 4/1/4 1/1/1
f  3/1/3 5/1/5 7/1/7
f  4/1/4 6/1/6 8/1/8
f  5/1/5 9/1/9 7/1/7
f  10/1/10 11/1/11 12/1/12
f  11/1/11 13/1/13 14/1/14
f  15/1/15 8/1/8 6/1/6
f  11/1/11 10/1/10 16/1/16
f  13/1/13 11/1/11 16/1/16
f  9/1/9 5/1/5 17/1/17
f  10/1/10 18/1/18 19/1/19
f  18/1/18 10/1/10 12/1/12
f  20/1/20 14/1/14 13/1/13
f  8/1/8 15/1/15 21/1/21
f  14/1/14 20/1/20 22/1/22
f  17/1/17 23/1/23 9/1/9
f  18/1/18 24/1/24 19/1/19
f  22/1/22 21/1/21 15/1/15
f  21/1/21 22/1/22 20/1/20
f  23/1/23 17/1/17 25/1/25
f  24/1/24 18/1/18 26/1/26
f  25/1/25 27/1/27 23/1/23
f  26/1/26 28/1/28 24/1/24
f  27/1/27 25/1/25 29/1/29
f  28/1/28 26/1/26 30/1/30
f  29/1/29 31/1/31 27/1/27
f  30/1/30 32/1/32 28/1/28
f  31/1/31 29/1/29 33/1/33
f  32/1/32 30/1/30 34/1/34
f  33/1/33 35/1/35 31/1/31
f  34/1/34 36/1/36 32/1/32
f  35/1/35 33/1/33 37/1/37
f  36/1/36 34/1/34 38/1/38
f  39/1/39 35/1/35 37/1/37
f  40/1/40 36/1/36 38/1/38
f  35/1/35 39/1/39 41/1/41
f  36/1/36 40/1/40 42/1/42
f  43/1/43 41/1/41 39/1/39
f  44/1/44 42/1/42 40/1/40
f  41/1/41 43/1/43 45/1/45
f  42/1/42 44/1/44 46/1/46
f  47/1/47 45/1/45 43/1/43
f  48/1/48 46/1/46 44/1/44
f  45/1/45 47/1/47 48/1/48
f  46/1/46 48/1/48 47/1/47

# Mesh 'mesh1_mesh1-geometry' with 114 faces
g mesh1_mesh1-geometry
usemtl material_1_24
f  3/1/49 2/1/36 1/1/50
f  4/1/42 1/1/50 2/1/36
f  2/1/36 3/1/49 5/1/32
f  1/1/50 11/1/51 3/1/49
f  1/1/50 4/1/42 6/1/52
f  16/1/53 2/1/53 4/1/53
f  4/1/54 2/1/54 16/1/54
f  7/1/55 5/1/32 3/1/49
f  10/1/53 5/1/53 2/1/53
f  2/1/54 5/1/54 10/1/54
f  11/1/51 12/1/56 3/1/49
f  14/1/57 11/1/51 1/1/50
f  8/1/46 6/1/52 4/1/42
f  6/1/52 14/1/57 1/1/50
f  10/1/53 2/1/53 16/1/53
f  16/1/54 2/1/54 10/1/54
f  16/1/53 4/1/53 13/1/53
f  13/1/54 4/1/54 16/1/54
f  7/1/55 9/1/58 5/1/32
f  3/1/49 12/1/56 7/1/55
f  19/1/53 5/1/53 10/1/53
f  10/1/54 5/1/54 19/1/54
f  12/1/56 11/1/51 10/1/33
f  14/1/57 13/1/39 11/1/51
f  6/1/52 8/1/46 15/1/59
f  13/1/53 4/1/53 8/1/53
f  8/1/54 4/1/54 13/1/54
f  22/1/60 14/1/57 6/1/52
f  16/1/37 10/1/33 11/1/51
f  16/1/37 11/1/51 13/1/39
f  17/1/28 5/1/32 9/1/58
f  7/1/55 18/1/61 9/1/58
f  12/1/56 18/1/61 7/1/55
f  19/1/53 17/1/53 5/1/53
f  5/1/54 17/1/54 19/1/54
f  19/1/29 18/1/61 10/1/33
f  12/1/56 10/1/33 18/1/61
f  13/1/39 14/1/57 20/1/43
f  21/1/47 15/1/59 8/1/46
f  15/1/59 22/1/60 6/1/52
f  13/1/53 8/1/53 20/1/53
f  20/1/54 8/1/54 13/1/54
f  22/1/60 20/1/43 14/1/57
f  9/1/58 23/1/62 17/1/28
f  18/1/61 26/1/63 9/1/58
f  24/1/53 17/1/53 19/1/53
f  19/1/54 17/1/54 24/1/54
f  19/1/29 24/1/25 18/1/61
f  15/1/59 21/1/47 22/1/60
f  20/1/53 8/1/53 21/1/53
f  21/1/54 8/1/54 20/1/54
f  20/1/43 22/1/60 21/1/47
f  25/1/24 17/1/28 23/1/62
f  9/1/58 26/1/63 23/1/62
f  26/1/63 18/1/61 24/1/25
f  24/1/53 25/1/53 17/1/53
f  17/1/54 25/1/54 24/1/54
f  23/1/62 27/1/64 25/1/24
f  26/1/63 30/1/65 23/1/62
f  24/1/25 28/1/17 26/1/63
f  28/1/53 25/1/53 24/1/53
f  24/1/54 25/1/54 28/1/54
f  29/1/19 25/1/24 27/1/64
f  23/1/62 30/1/65 27/1/64
f  30/1/65 26/1/63 28/1/17
f  28/1/53 29/1/53 25/1/53
f  25/1/54 29/1/54 28/1/54
f  27/1/64 31/1/66 29/1/19
f  30/1/65 34/1/67 27/1/64
f  28/1/17 32/1/5 30/1/65
f  32/1/53 29/1/53 28/1/53
f  28/1/54 29/1/54 32/1/54
f  33/1/10 29/1/19 31/1/66
f  27/1/64 34/1/67 31/1/66
f  34/1/67 30/1/65 32/1/5
f  32/1/53 33/1/53 29/1/53
f  29/1/54 33/1/54 32/1/54
f  31/1/66 35/1/68 33/1/10
f  34/1/67 38/1/69 31/1/66
f  32/1/5 36/1/2 34/1/67
f  36/1/53 33/1/53 32/1/53
f  32/1/54 33/1/54 36/1/54
f  37/1/16 33/1/10 35/1/68
f  31/1/66 38/1/69 35/1/68
f  38/1/69 34/1/67 36/1/2
f  36/1/53 37/1/53 33/1/53
f  33/1/54 37/1/54 36/1/54
f  37/1/16 35/1/68 39/1/13
f  38/1/69 40/1/70 35/1/68
f  38/1/69 36/1/2 40/1/70
f  42/1/53 37/1/53 36/1/53
f  36/1/54 37/1/54 42/1/54
f  41/1/71 39/1/13 35/1/68
f  42/1/53 39/1/53 37/1/53
f  37/1/54 39/1/54 42/1/54
f  35/1/68 40/1/70 41/1/71
f  42/1/4 40/1/70 36/1/2
f  39/1/13 41/1/71 43/1/20
f  46/1/53 39/1/53 42/1/53
f  42/1/54 39/1/54 46/1/54
f  40/1/70 44/1/72 41/1/71
f  40/1/70 42/1/4 44/1/72
f  45/1/73 43/1/20 41/1/71
f  46/1/53 43/1/53 39/1/53
f  39/1/54 43/1/54 46/1/54
f  46/1/8 44/1/72 42/1/4
f  41/1/71 44/1/72 45/1/73
f  43/1/20 45/1/73 47/1/21
f  43/1/53 46/1/53 47/1/53
f  47/1/54 46/1/54 43/1/54
f  44/1/72 46/1/8 48/1/74
f  48/1/74 45/1/73 44/1/72
f  48/1/74 47/1/21 45/1/73
f  47/1/21 48/1/74 46/1/8

# Mesh 'mesh1_mesh1-geometry' with 22 faces
g mesh1_mesh1-geometry
usemtl material_2_1_8
f  3/2/3 11/3/11 1/4/1
f  3/2/3 12/5/12 11/3/11
f  1/4/1 11/3/11 14/6/14
f  1/4/1 14/6/14 6/7/6
f  7/8/7 12/5/12 3/2/3
f  6/7/6 14/6/14 22/9/22
f  9/10/9 18/11/18 7/8/7
f  7/8/7 18/11/18 12/5/12
f  6/7/6 22/9/22 15/12/15
f  9/10/9 26/13/26 18/11/18
f  23/14/23 26/13/26 9/10/9
f  23/14/23 30/15/30 26/13/26
f  27/16/27 30/15/30 23/14/23
f  27/16/27 34/17/34 30/15/30
f  31/18/31 34/17/34 27/16/27
f  31/18/31 38/19/38 34/17/34
f  35/20/35 38/19/38 31/18/31
f  35/20/35 40/21/40 38/19/38
f  41/22/41 40/21/40 35/20/35
f  41/22/41 44/23/44 40/21/40
f  45/24/45 44/23/44 41/22/41
f  44/23/44 45/24/45 48/25/48

# Mesh 'mesh2_mesh2-geometry' with 23 faces
g mesh2_mesh2-geometry
usemtl material_1_0
l  4 8
l  8 21
l  21 20
l  20 13
l  13 16
l  16 10
l  10 19
l  19 24
l  24 28
l  28 32
l  32 36
l  36 42
l  42 46
l  46 47
l  47 43
l  43 39
l  39 37
l  37 33
l  33 29
l  29 25
l  25 17
l  17 5
l  5 2

